<svg xmlns="http://www.w3.org/2000/svg" width="64" height="64" viewBox="0 0 64 64" fill="none">
<path id="blue" d="M41.155 32.5447C41.155 27.6844 41.1271 24.5 41.0712 22.9916C40.9595 20.7011 40.6522 19.0531 40.1494 18.0475C39.6466 16.986 38.8366 16.3436 37.7193 16.1201C36.6019 15.9525 35.0098 15.8687 32.9427 15.8687C30.5405 15.8687 28.9762 15.9805 28.25 16.2039V3.13129C28.7528 3.07543 29.507 3.04749 30.5126 3.04749H32.9427C39.1997 3.04749 44.0321 3.55029 47.4399 4.55587C50.9036 5.50559 53.4176 7.09777 54.9818 9.33241C56.4343 11.3994 57.3282 14.1089 57.6634 17.4609C58.0545 20.8129 58.25 25.8408 58.25 32.5447C58.25 38.4106 58.1103 42.9358 57.831 46.1201C57.6075 49.2486 56.993 51.8464 55.9874 53.9134C54.8701 56.2598 53.1383 58.0475 50.7919 59.2765C48.5014 60.5056 45.2891 61.3156 41.155 61.7067V32.5447ZM32.9427 62.0419C24.7863 62.0419 18.9204 61.148 15.345 59.3603C13.5014 58.4665 12.0489 57.2654 10.9874 55.757C9.92597 54.2486 9.14385 52.3771 8.64105 50.1425C8.19413 48.1872 7.9148 45.9525 7.80307 43.4386C7.69133 40.8687 7.63547 37.2374 7.63547 32.5447C7.63547 26.6788 7.7472 22.1816 7.97066 19.0531C8.24999 15.9246 8.89245 13.2989 9.89804 11.176C11.0154 8.88548 12.7193 7.1257 15.0098 5.89665C17.3003 4.66761 20.5405 3.82962 24.7304 3.38269V32.5447C24.7304 35.8408 24.7863 38.9972 24.898 42.014C25.0098 44.3045 25.2891 45.9805 25.736 47.0419C26.2388 48.1034 27.0489 48.7179 28.1662 48.8855C29.1159 49.1089 30.7081 49.2207 32.9427 49.2207C35.2332 49.2207 36.7975 49.1369 37.6355 48.9693V61.9581C37.1327 62.014 36.3785 62.0419 35.3729 62.0419H32.9427Z" fill="#6192F2"/>
<path id="light" d="M39.2696 31.4972C39.2696 26.6369 39.2416 23.4525 39.1858 21.9441C39.074 19.6536 38.7668 18.0056 38.264 17C37.7612 15.9385 36.9511 15.2961 35.8338 15.0726C34.7165 14.905 33.1243 14.8212 31.0573 14.8212C28.655 14.8212 27.0908 14.933 26.3645 15.1564V2.0838C26.8673 2.02793 27.6215 2 28.6271 2H31.0573C37.3142 2 42.1466 2.50279 45.5545 3.50838C49.0182 4.4581 51.5321 6.05028 53.0964 8.28491C54.5489 10.352 55.4427 13.0615 55.7779 16.4134C56.169 19.7654 56.3645 24.7933 56.3645 31.4972C56.3645 37.3631 56.2249 41.8883 55.9455 45.0726C55.7221 48.2011 55.1075 50.7989 54.102 52.8659C52.9846 55.2123 51.2528 57 48.9064 58.229C46.6159 59.4581 43.4036 60.2682 39.2696 60.6592V31.4972ZM31.0573 60.9944C22.9008 60.9944 17.0349 60.1006 13.4595 58.3128C11.6159 57.419 10.1634 56.2179 9.10196 54.7095C8.0405 53.2011 7.25838 51.3296 6.75559 49.095C6.30866 47.1397 6.02933 44.905 5.9176 42.3911C5.80587 39.8212 5.75 36.1899 5.75 31.4972C5.75 25.6313 5.86173 21.1341 6.0852 18.0056C6.36453 14.8771 7.00698 12.2514 8.01257 10.1285C9.12989 7.83799 10.8338 6.07821 13.1243 4.84916C15.4148 3.62011 18.655 2.78212 22.845 2.3352V31.4972C22.845 34.7933 22.9008 37.9497 23.0126 40.9665C23.1243 43.257 23.4036 44.933 23.8506 45.9944C24.3534 47.0559 25.1634 47.6704 26.2807 47.838C27.2304 48.0614 28.8226 48.1732 31.0573 48.1732C33.3478 48.1732 34.912 48.0894 35.75 47.9218V60.9106C35.2472 60.9665 34.493 60.9944 33.4874 60.9944H31.0573Z" />
    <style>
        #light { fill: #000; }
        @media (prefers-color-scheme: dark) {
            #light { fill: #FFF; }
        }
    </style>
</svg>